<?xml version="1.0" encoding="UTF-8"?>
<svg xmlns="http://www.w3.org/2000/svg" width="120" height="45" viewBox="0 0 120 45" shape-rendering="crispEdges">
<title>boat-lose</title>
<desc>Derived from the base svgMap vehicle in D:/Work/LAMDiceBot/js/horse-race-sprites.js boat run.frame1 near line 135; strict 2x1 lose atlas, 60x45 cells. Not derived from POWER_VEHICLE_VARIANT_OVERRIDES.</desc>
<defs>
  <clipPath id="clip-0"><rect x="0" y="0" width="60" height="45"/></clipPath>
  <clipPath id="clip-1"><rect x="60" y="0" width="60" height="45"/></clipPath>
  <filter id="muted" color-interpolation-filters="sRGB">
    <feColorMatrix type="saturate" values="0.78"/>
  </filter>
</defs>
<!-- strict atlas: 2 columns x 1 row, 60x45 cells, no gutters -->
<g clip-path="url(#clip-0)">
  <g transform="translate(0 0)">
    <g filter="url(#muted)" transform="translate(0 0) rotate(5 30 39)">
      <svg x="0" y="0" width="60" height="45" viewBox="0 0 60 45" preserveAspectRatio="xMidYMax meet">
<path d="M5,30 Q15,28 25,30 Q35,32 45,30 Q55,28 60,30" fill="none" stroke="#3498db" stroke-width="3"/>
                    <polygon points="10,28 50,28 45,20 15,20" fill="#e74c3c"/>
                    <rect x="28" y="10" width="4" height="12" fill="#8b4513"/>
                    <polygon points="32,8 32,18 50,14" fill="white"/>
      </svg>
    </g>

<circle cx="47" cy="27" r="1.7" fill="none" stroke="#b9ecff" stroke-width="1.1"/><circle cx="52" cy="25" r="1.3" fill="none" stroke="#b9ecff" stroke-width="1.1"/><circle cx="55" cy="28" r="1.8" fill="none" stroke="#b9ecff" stroke-width="1.1"/>
  </g>
</g>
<g clip-path="url(#clip-1)">
  <g transform="translate(60 0)">
    <g filter="url(#muted)" transform="translate(0 1) rotate(8 30 39)">
      <svg x="0" y="0" width="60" height="45" viewBox="0 0 60 45" preserveAspectRatio="xMidYMax meet">
<path d="M5,30 Q15,32 25,30 Q35,28 45,30 Q55,32 60,30" fill="none" stroke="#3498db" stroke-width="3"/>
                    <polygon points="10,28 50,28 45,20 15,20" fill="#e74c3c"/>
                    <rect x="28" y="10" width="4" height="12" fill="#8b4513"/>
                    <polygon points="32,8 32,18 50,14" fill="white"/>
      </svg>
    </g>

<circle cx="47" cy="26" r="1.7" fill="none" stroke="#b9ecff" stroke-width="1.1"/><circle cx="52" cy="24" r="1.3" fill="none" stroke="#b9ecff" stroke-width="1.1"/><circle cx="55" cy="27" r="1.8" fill="none" stroke="#b9ecff" stroke-width="1.1"/>
  </g>
</g>
</svg>