<?xml version="1.0" encoding="UTF-8"?>
<svg xmlns="http://www.w3.org/2000/svg" width="120" height="45" viewBox="0 0 120 45" shape-rendering="crispEdges">
<title>crab-lose</title>
<desc>Derived from the base svgMap vehicle in D:/Work/LAMDiceBot/js/horse-race-sprites.js crab run.frame1 near line 2027; strict 2x1 lose atlas, 60x45 cells. Not derived from POWER_VEHICLE_VARIANT_OVERRIDES.</desc>
<defs>
  <clipPath id="clip-0"><rect x="0" y="0" width="60" height="45"/></clipPath>
  <clipPath id="clip-1"><rect x="60" y="0" width="60" height="45"/></clipPath>
  <filter id="muted" color-interpolation-filters="sRGB">
    <feColorMatrix type="saturate" values="0.78"/>
  </filter>
</defs>
<!-- strict atlas: 2 columns x 1 row, 60x45 cells, no gutters -->
<g clip-path="url(#clip-0)">
  <g transform="translate(0 0)">
    <g filter="url(#muted)" transform="translate(0 1) translate(0 45) scale(1 0.94) translate(0 -45)">
      <svg x="0" y="0" width="60" height="45" viewBox="0 0 60 45" preserveAspectRatio="xMidYMax meet">
<!-- 다리 (왼쪽 3개, 벌어진) -->
                    <rect x="8" y="30" width="2" height="8" fill="#c0392b" transform="rotate(-20,9,30)"/>
                    <rect x="13" y="32" width="2" height="8" fill="#c0392b" transform="rotate(-10,14,32)"/>
                    <rect x="18" y="34" width="2" height="6" fill="#c0392b"/>
                    <!-- 다리 (오른쪽 3개, 모인) -->
                    <rect x="38" y="34" width="2" height="6" fill="#c0392b"/>
                    <rect x="43" y="33" width="2" height="7" fill="#c0392b" transform="rotate(5,44,33)"/>
                    <rect x="48" y="32" width="2" height="7" fill="#c0392b" transform="rotate(10,49,32)"/>
                    <!-- 몸통 -->
                    <ellipse cx="30" cy="27" rx="14" ry="8" fill="#e74c3c"/>
                    <ellipse cx="30" cy="25" rx="11" ry="6" fill="#c0392b"/>
                    <ellipse cx="30" cy="25" rx="5" ry="3" fill="#a93226" opacity="0.5"/>
                    <!-- 눈 -->
                    <rect x="24" y="17" width="3" height="5" rx="1" fill="#e74c3c"/>
                    <rect x="33" y="17" width="3" height="5" rx="1" fill="#e74c3c"/>
                    <circle cx="25.5" cy="17" r="2" fill="white"/>
                    <circle cx="34.5" cy="17" r="2" fill="white"/>
                    <circle cx="26" cy="17" r="1" fill="#1a1a1a"/>
                    <circle cx="35" cy="17" r="1" fill="#1a1a1a"/>
                    <!-- 집게발 (왼쪽, 앞으로) -->
                    <rect x="2" y="20" width="10" height="4" rx="1" fill="#e74c3c"/>
                    <rect x="0" y="18" width="4" height="4" rx="1" fill="#c0392b"/>
                    <rect x="0" y="22" width="4" height="3" rx="1" fill="#c0392b"/>
                    <!-- 집게발 (오른쪽, 뒤로) -->
                    <rect x="48" y="24" width="8" height="4" rx="1" fill="#e74c3c"/>
                    <rect x="54" y="22" width="4" height="4" rx="1" fill="#c0392b"/>
                    <rect x="54" y="26" width="4" height="3" rx="1" fill="#c0392b"/>
                    <!-- 거품 -->
                    <circle cx="8" cy="28" r="1.5" fill="white" opacity="0.4"/>
                    <circle cx="5" cy="32" r="1" fill="white" opacity="0.3"/>
      </svg>
    </g>
<rect x="22" y="17" width="3" height="1.4" fill="#24324a"/><rect x="27" y="17" width="3" height="1.4" fill="#24324a"/><rect x="23" y="18" width="1.2" height="2.4" fill="#24324a"/><rect x="28" y="18" width="1.2" height="2.4" fill="#24324a"/>
<circle cx="43" cy="15" r="1.7" fill="none" stroke="#b9ecff" stroke-width="1.1"/><circle cx="48" cy="13" r="1.3" fill="none" stroke="#b9ecff" stroke-width="1.1"/><circle cx="51" cy="16" r="1.8" fill="none" stroke="#b9ecff" stroke-width="1.1"/>
  </g>
</g>
<g clip-path="url(#clip-1)">
  <g transform="translate(60 0)">
    <g filter="url(#muted)" transform="translate(0 2) translate(0 45) scale(1 0.91) translate(0 -45)">
      <svg x="0" y="0" width="60" height="45" viewBox="0 0 60 45" preserveAspectRatio="xMidYMax meet">
<!-- 다리 (왼쪽 3개, 모인) -->
                    <rect x="10" y="33" width="2" height="7" fill="#c0392b" transform="rotate(-5,11,33)"/>
                    <rect x="14" y="33" width="2" height="7" fill="#c0392b" transform="rotate(-3,15,33)"/>
                    <rect x="18" y="33" width="2" height="7" fill="#c0392b"/>
                    <!-- 다리 (오른쪽 3개, 벌어진) -->
                    <rect x="38" y="33" width="2" height="7" fill="#c0392b"/>
                    <rect x="43" y="31" width="2" height="8" fill="#c0392b" transform="rotate(10,44,31)"/>
                    <rect x="48" y="29" width="2" height="9" fill="#c0392b" transform="rotate(20,49,29)"/>
                    <!-- 몸통 -->
                    <ellipse cx="30" cy="26" rx="14" ry="8" fill="#e74c3c"/>
                    <ellipse cx="30" cy="24" rx="11" ry="6" fill="#c0392b"/>
                    <ellipse cx="30" cy="24" rx="5" ry="3" fill="#a93226" opacity="0.5"/>
                    <!-- 눈 -->
                    <rect x="24" y="16" width="3" height="5" rx="1" fill="#e74c3c"/>
                    <rect x="33" y="16" width="3" height="5" rx="1" fill="#e74c3c"/>
                    <circle cx="25.5" cy="16" r="2" fill="white"/>
                    <circle cx="34.5" cy="16" r="2" fill="white"/>
                    <circle cx="25" cy="16" r="1" fill="#1a1a1a"/>
                    <circle cx="34" cy="16" r="1" fill="#1a1a1a"/>
                    <!-- 집게발 (왼쪽, 뒤로) -->
                    <rect x="4" y="24" width="8" height="4" rx="1" fill="#e74c3c"/>
                    <rect x="2" y="22" width="4" height="4" rx="1" fill="#c0392b"/>
                    <rect x="2" y="26" width="4" height="3" rx="1" fill="#c0392b"/>
                    <!-- 집게발 (오른쪽, 앞으로) -->
                    <rect x="48" y="20" width="10" height="4" rx="1" fill="#e74c3c"/>
                    <rect x="56" y="18" width="4" height="4" rx="1" fill="#c0392b"/>
                    <rect x="56" y="22" width="4" height="3" rx="1" fill="#c0392b"/>
                    <!-- 거품 -->
                    <circle cx="52" cy="27" r="1.5" fill="white" opacity="0.4"/>
                    <circle cx="55" cy="31" r="1" fill="white" opacity="0.3"/>
      </svg>
    </g>
<rect x="22" y="18" width="3" height="1.4" fill="#24324a"/><rect x="27" y="18" width="3" height="1.4" fill="#24324a"/><rect x="23" y="19" width="1.2" height="2.4" fill="#24324a"/><rect x="28" y="19" width="1.2" height="2.4" fill="#24324a"/>
<circle cx="43" cy="14" r="1.7" fill="none" stroke="#b9ecff" stroke-width="1.1"/><circle cx="48" cy="12" r="1.3" fill="none" stroke="#b9ecff" stroke-width="1.1"/><circle cx="51" cy="15" r="1.8" fill="none" stroke="#b9ecff" stroke-width="1.1"/>
  </g>
</g>
</svg>