<?xml version="1.0" encoding="UTF-8"?>
<svg xmlns="http://www.w3.org/2000/svg" width="120" height="45" viewBox="0 0 120 45" shape-rendering="crispEdges">
<title>dinosaur-lose</title>
<desc>Derived from the base svgMap vehicle in D:/Work/LAMDiceBot/js/horse-race-sprites.js dinosaur run.frame1 near line 1267; strict 2x1 lose atlas, 60x45 cells. Not derived from POWER_VEHICLE_VARIANT_OVERRIDES.</desc>
<defs>
  <clipPath id="clip-0"><rect x="0" y="0" width="60" height="45"/></clipPath>
  <clipPath id="clip-1"><rect x="60" y="0" width="60" height="45"/></clipPath>
  <filter id="muted" color-interpolation-filters="sRGB">
    <feColorMatrix type="saturate" values="0.78"/>
  </filter>
</defs>
<!-- strict atlas: 2 columns x 1 row, 60x45 cells, no gutters -->
<g clip-path="url(#clip-0)">
  <g transform="translate(0 0)">
    <g filter="url(#muted)" transform="translate(0 1) translate(0 45) scale(1 0.94) translate(0 -45)">
      <svg x="0" y="0" width="60" height="45" viewBox="0 0 60 45" preserveAspectRatio="xMidYMax meet">
<!-- 꼬리 -->
                    <rect x="4" y="26" width="8" height="4" fill="#2ecc71"/>
                    <rect x="2" y="28" width="4" height="3" fill="#2ecc71"/>
                    <!-- 몸통 -->
                    <rect x="12" y="18" width="22" height="16" rx="2" fill="#27ae60"/>
                    <!-- 배 -->
                    <rect x="16" y="22" width="12" height="10" rx="1" fill="#a8e6cf"/>
                    <!-- 등 가시 -->
                    <rect x="14" y="14" width="3" height="6" fill="#e74c3c"/>
                    <rect x="19" y="11" width="3" height="8" fill="#e74c3c"/>
                    <rect x="24" y="12" width="3" height="7" fill="#e74c3c"/>
                    <rect x="29" y="14" width="3" height="5" fill="#e74c3c"/>
                    <!-- 뒷다리 (달리기 A) -->
                    <rect x="14" y="34" width="5" height="8" fill="#27ae60"/>
                    <rect x="12" y="40" width="7" height="3" fill="#1a8a45"/>
                    <rect x="24" y="32" width="5" height="6" fill="#27ae60"/>
                    <rect x="24" y="37" width="7" height="3" fill="#1a8a45"/>
                    <!-- 앞팔 -->
                    <rect x="32" y="22" width="5" height="3" fill="#27ae60"/>
                    <rect x="36" y="22" width="3" height="5" fill="#27ae60"/>
                    <!-- 머리 -->
                    <rect x="34" y="14" width="14" height="10" rx="2" fill="#27ae60"/>
                    <rect x="44" y="18" width="6" height="4" rx="1" fill="#27ae60"/>
                    <!-- 눈 -->
                    <rect x="44" y="15" width="3" height="3" fill="white"/>
                    <rect x="45" y="16" width="2" height="2" fill="#1a1a1a"/>
                    <!-- 콧구멍 -->
                    <rect x="49" y="19" width="1" height="1" fill="#1a8a45"/>
                    <!-- 이빨 -->
                    <rect x="45" y="22" width="2" height="2" fill="white"/>
                    <rect x="48" y="22" width="2" height="2" fill="white"/>
      </svg>
    </g>
<rect x="45" y="18" width="3" height="1.4" fill="#24324a"/><rect x="50" y="18" width="3" height="1.4" fill="#24324a"/><rect x="46" y="19" width="1.2" height="2.4" fill="#24324a"/><rect x="51" y="19" width="1.2" height="2.4" fill="#24324a"/>
<circle cx="25" cy="10" r="2" fill="#c5c9cc" stroke="#6c737a" stroke-width="1.1"/><circle cx="28" cy="9" r="2.4" fill="#d6dadd" stroke="#6c737a" stroke-width="1.1"/><circle cx="31" cy="10" r="2" fill="#c5c9cc" stroke="#6c737a" stroke-width="1.1"/>
  </g>
</g>
<g clip-path="url(#clip-1)">
  <g transform="translate(60 0)">
    <g filter="url(#muted)" transform="translate(0 2) translate(0 45) scale(1 0.91) translate(0 -45)">
      <svg x="0" y="0" width="60" height="45" viewBox="0 0 60 45" preserveAspectRatio="xMidYMax meet">
<!-- 꼬리 -->
                    <rect x="4" y="25" width="8" height="4" fill="#2ecc71"/>
                    <rect x="2" y="27" width="4" height="3" fill="#2ecc71"/>
                    <!-- 몸통 -->
                    <rect x="12" y="17" width="22" height="16" rx="2" fill="#27ae60"/>
                    <!-- 배 -->
                    <rect x="16" y="21" width="12" height="10" rx="1" fill="#a8e6cf"/>
                    <!-- 등 가시 -->
                    <rect x="14" y="13" width="3" height="6" fill="#e74c3c"/>
                    <rect x="19" y="10" width="3" height="8" fill="#e74c3c"/>
                    <rect x="24" y="11" width="3" height="7" fill="#e74c3c"/>
                    <rect x="29" y="13" width="3" height="5" fill="#e74c3c"/>
                    <!-- 뒷다리 (달리기 B) -->
                    <rect x="16" y="33" width="5" height="6" fill="#27ae60"/>
                    <rect x="14" y="38" width="7" height="3" fill="#1a8a45"/>
                    <rect x="22" y="33" width="5" height="8" fill="#27ae60"/>
                    <rect x="22" y="40" width="7" height="3" fill="#1a8a45"/>
                    <!-- 앞팔 -->
                    <rect x="32" y="21" width="5" height="3" fill="#27ae60"/>
                    <rect x="36" y="21" width="3" height="6" fill="#27ae60"/>
                    <!-- 머리 -->
                    <rect x="34" y="13" width="14" height="10" rx="2" fill="#27ae60"/>
                    <rect x="44" y="17" width="6" height="4" rx="1" fill="#27ae60"/>
                    <!-- 눈 -->
                    <rect x="44" y="14" width="3" height="3" fill="white"/>
                    <rect x="45" y="15" width="2" height="2" fill="#1a1a1a"/>
                    <!-- 콧구멍 -->
                    <rect x="49" y="18" width="1" height="1" fill="#1a8a45"/>
                    <!-- 이빨 -->
                    <rect x="45" y="21" width="2" height="2" fill="white"/>
                    <rect x="48" y="21" width="2" height="2" fill="white"/>
      </svg>
    </g>
<rect x="45" y="19" width="3" height="1.4" fill="#24324a"/><rect x="50" y="19" width="3" height="1.4" fill="#24324a"/><rect x="46" y="20" width="1.2" height="2.4" fill="#24324a"/><rect x="51" y="20" width="1.2" height="2.4" fill="#24324a"/>
<circle cx="25" cy="9" r="2" fill="#c5c9cc" stroke="#6c737a" stroke-width="1.1"/><circle cx="28" cy="8" r="2.4" fill="#d6dadd" stroke="#6c737a" stroke-width="1.1"/><circle cx="31" cy="9" r="2" fill="#c5c9cc" stroke="#6c737a" stroke-width="1.1"/>
  </g>
</g>
</svg>