<?xml version="1.0" encoding="UTF-8"?>
<svg xmlns="http://www.w3.org/2000/svg" width="120" height="45" viewBox="0 0 120 45" shape-rendering="crispEdges">
<title>knight-lose</title>
<desc>Derived from the base svgMap vehicle in D:/Work/LAMDiceBot/js/horse-race-sprites.js knight run.frame1 near line 886; strict 2x1 lose atlas, 60x45 cells. Not derived from POWER_VEHICLE_VARIANT_OVERRIDES.</desc>
<defs>
  <clipPath id="clip-0"><rect x="0" y="0" width="60" height="45"/></clipPath>
  <clipPath id="clip-1"><rect x="60" y="0" width="60" height="45"/></clipPath>
  <filter id="muted" color-interpolation-filters="sRGB">
    <feColorMatrix type="saturate" values="0.78"/>
  </filter>
</defs>
<!-- strict atlas: 2 columns x 1 row, 60x45 cells, no gutters -->
<g clip-path="url(#clip-0)">
  <g transform="translate(0 0)">
    <g filter="url(#muted)" transform="translate(0 1) translate(0 45) scale(1 0.94) translate(0 -45)">
      <svg x="0" y="0" width="60" height="45" viewBox="0 0 60 45" preserveAspectRatio="xMidYMax meet">
<!-- 다리 (달리기 자세 A) -->
                    <rect x="24" y="32" width="4" height="8" fill="#555"/>
                    <rect x="24" y="40" width="4" height="2" fill="#888"/>
                    <rect x="30" y="34" width="4" height="6" fill="#555"/>
                    <rect x="30" y="40" width="4" height="2" fill="#888"/>
                    <!-- 몸통 갑옷 -->
                    <rect x="22" y="20" width="16" height="13" rx="1" fill="#777"/>
                    <rect x="24" y="21" width="4" height="5" fill="#999"/>
                    <rect x="30" y="21" width="4" height="5" fill="#999"/>
                    <rect x="22" y="28" width="16" height="3" fill="#555"/>
                    <!-- 팔 (앞으로) -->
                    <rect x="16" y="21" width="6" height="3" fill="#777"/>
                    <rect x="13" y="20" width="4" height="5" rx="1" fill="#888"/>
                    <!-- 뒷팔 -->
                    <rect x="38" y="22" width="5" height="3" fill="#666"/>
                    <!-- 투구 -->
                    <rect x="24" y="11" width="12" height="9" rx="1" fill="#666"/>
                    <rect x="26" y="8" width="8" height="5" rx="1" fill="#777"/>
                    <rect x="26" y="14" width="8" height="3" fill="#333"/>
                    <!-- 눈구멍 -->
                    <rect x="27" y="15" width="2" height="2" fill="#88ccff"/>
                    <rect x="31" y="15" width="2" height="2" fill="#88ccff"/>
                    <!-- 깃털 장식 -->
                    <rect x="28" y="5" width="2" height="5" fill="#e74c3c"/>
                    <rect x="30" y="4" width="2" height="6" fill="#c0392b"/>
                    <!-- 검 -->
                    <rect x="10" y="16" width="2" height="14" fill="#ccc"/>
                    <rect x="7" y="19" width="8" height="2" fill="#aaa"/>
                    <rect x="10" y="14" width="2" height="3" fill="#f1c40f"/>
      </svg>
    </g>
<rect x="28" y="16" width="3" height="1.4" fill="#24324a"/><rect x="33" y="16" width="3" height="1.4" fill="#24324a"/><rect x="29" y="17" width="1.2" height="2.4" fill="#24324a"/><rect x="34" y="17" width="1.2" height="2.4" fill="#24324a"/>
<circle cx="17" cy="10" r="2" fill="#c5c9cc" stroke="#6c737a" stroke-width="1.1"/><circle cx="20" cy="9" r="2.4" fill="#d6dadd" stroke="#6c737a" stroke-width="1.1"/><circle cx="23" cy="10" r="2" fill="#c5c9cc" stroke="#6c737a" stroke-width="1.1"/>
  </g>
</g>
<g clip-path="url(#clip-1)">
  <g transform="translate(60 0)">
    <g filter="url(#muted)" transform="translate(0 2) translate(0 45) scale(1 0.91) translate(0 -45)">
      <svg x="0" y="0" width="60" height="45" viewBox="0 0 60 45" preserveAspectRatio="xMidYMax meet">
<!-- 다리 (달리기 자세 B) -->
                    <rect x="26" y="30" width="4" height="10" fill="#555"/>
                    <rect x="26" y="40" width="4" height="2" fill="#888"/>
                    <rect x="32" y="32" width="4" height="8" fill="#555"/>
                    <rect x="30" y="40" width="6" height="2" fill="#888"/>
                    <!-- 몸통 갑옷 -->
                    <rect x="22" y="19" width="16" height="13" rx="1" fill="#777"/>
                    <rect x="24" y="20" width="4" height="5" fill="#999"/>
                    <rect x="30" y="20" width="4" height="5" fill="#999"/>
                    <rect x="22" y="27" width="16" height="3" fill="#555"/>
                    <!-- 팔 (위로) -->
                    <rect x="15" y="18" width="7" height="3" fill="#777"/>
                    <rect x="12" y="17" width="4" height="5" rx="1" fill="#888"/>
                    <!-- 뒷팔 -->
                    <rect x="38" y="21" width="5" height="3" fill="#666"/>
                    <!-- 투구 -->
                    <rect x="24" y="10" width="12" height="9" rx="1" fill="#666"/>
                    <rect x="26" y="7" width="8" height="5" rx="1" fill="#777"/>
                    <rect x="26" y="13" width="8" height="3" fill="#333"/>
                    <!-- 눈구멍 -->
                    <rect x="27" y="14" width="2" height="2" fill="#88ccff"/>
                    <rect x="31" y="14" width="2" height="2" fill="#88ccff"/>
                    <!-- 깃털 장식 -->
                    <rect x="28" y="4" width="2" height="5" fill="#e74c3c"/>
                    <rect x="30" y="3" width="2" height="6" fill="#c0392b"/>
                    <!-- 검 -->
                    <rect x="9" y="14" width="2" height="14" fill="#ccc"/>
                    <rect x="6" y="17" width="8" height="2" fill="#aaa"/>
                    <rect x="9" y="12" width="2" height="3" fill="#f1c40f"/>
      </svg>
    </g>
<rect x="28" y="17" width="3" height="1.4" fill="#24324a"/><rect x="33" y="17" width="3" height="1.4" fill="#24324a"/><rect x="29" y="18" width="1.2" height="2.4" fill="#24324a"/><rect x="34" y="18" width="1.2" height="2.4" fill="#24324a"/>
<circle cx="17" cy="9" r="2" fill="#c5c9cc" stroke="#6c737a" stroke-width="1.1"/><circle cx="20" cy="8" r="2.4" fill="#d6dadd" stroke="#6c737a" stroke-width="1.1"/><circle cx="23" cy="9" r="2" fill="#c5c9cc" stroke="#6c737a" stroke-width="1.1"/>
  </g>
</g>
</svg>