<?xml version="1.0" encoding="UTF-8"?>
<svg xmlns="http://www.w3.org/2000/svg" width="120" height="45" viewBox="0 0 120 45" shape-rendering="crispEdges">
<title>rabbit-lose</title>
<desc>Derived from the base svgMap vehicle in D:/Work/LAMDiceBot/js/horse-race-sprites.js rabbit run.frame1 near line 217; strict 2x1 lose atlas, 60x45 cells. Not derived from POWER_VEHICLE_VARIANT_OVERRIDES.</desc>
<defs>
  <clipPath id="clip-0"><rect x="0" y="0" width="60" height="45"/></clipPath>
  <clipPath id="clip-1"><rect x="60" y="0" width="60" height="45"/></clipPath>
  <filter id="muted" color-interpolation-filters="sRGB">
    <feColorMatrix type="saturate" values="0.78"/>
  </filter>
</defs>
<!-- strict atlas: 2 columns x 1 row, 60x45 cells, no gutters -->
<g clip-path="url(#clip-0)">
  <g transform="translate(0 0)">
    <g filter="url(#muted)" transform="translate(0 1) translate(0 45) scale(1 0.94) translate(0 -45)">
      <svg x="0" y="0" width="60" height="45" viewBox="0 0 60 45" preserveAspectRatio="xMidYMax meet">
<ellipse cx="30" cy="28" rx="14" ry="10" fill="#f5f5dc"/>
                    <circle cx="45" cy="22" r="8" fill="#f5f5dc"/>
                    <ellipse cx="40" cy="8" rx="3" ry="10" fill="#f5f5dc"/>
                    <ellipse cx="48" cy="10" rx="3" ry="9" fill="#f5f5dc"/>
                    <ellipse cx="40" cy="10" rx="2" ry="6" fill="#ffb6c1"/>
                    <ellipse cx="48" cy="12" rx="2" ry="5" fill="#ffb6c1"/>
                    <circle cx="50" cy="20" r="2" fill="black"/>
                    <circle cx="47" cy="26" r="2" fill="#ffb6c1"/>
                    <ellipse cx="18" cy="32" rx="5" ry="4" fill="#f5f5dc"/>
                    <ellipse cx="25" cy="35" rx="4" ry="3" fill="#f5f5dc"/>
                    <circle cx="14" cy="30" r="4" fill="#f5f5dc"/>
      </svg>
    </g>
<rect x="45" y="19" width="3" height="1.4" fill="#24324a"/><rect x="50" y="19" width="3" height="1.4" fill="#24324a"/><rect x="46" y="20" width="1.2" height="2.4" fill="#24324a"/><rect x="51" y="20" width="1.2" height="2.4" fill="#24324a"/>
<path d="M52,12 L55,16 L52,20 L49,16 Z" fill="#69bdf5" stroke="#1f5f92" stroke-width="0.9" stroke-linecap="round" stroke-linejoin="round"/>
  </g>
</g>
<g clip-path="url(#clip-1)">
  <g transform="translate(60 0)">
    <g filter="url(#muted)" transform="translate(0 2) translate(0 45) scale(1 0.91) translate(0 -45)">
      <svg x="0" y="0" width="60" height="45" viewBox="0 0 60 45" preserveAspectRatio="xMidYMax meet">
<ellipse cx="30" cy="24" rx="14" ry="10" fill="#f5f5dc"/>
                    <circle cx="45" cy="18" r="8" fill="#f5f5dc"/>
                    <ellipse cx="40" cy="4" rx="3" ry="10" fill="#f5f5dc"/>
                    <ellipse cx="48" cy="6" rx="3" ry="9" fill="#f5f5dc"/>
                    <ellipse cx="40" cy="6" rx="2" ry="6" fill="#ffb6c1"/>
                    <ellipse cx="48" cy="8" rx="2" ry="5" fill="#ffb6c1"/>
                    <circle cx="50" cy="16" r="2" fill="black"/>
                    <circle cx="47" cy="22" r="2" fill="#ffb6c1"/>
                    <ellipse cx="20" cy="38" rx="5" ry="4" fill="#f5f5dc"/>
                    <ellipse cx="28" cy="40" rx="4" ry="3" fill="#f5f5dc"/>
                    <circle cx="14" cy="35" r="4" fill="#f5f5dc"/>
      </svg>
    </g>
<rect x="45" y="20" width="3" height="1.4" fill="#24324a"/><rect x="50" y="20" width="3" height="1.4" fill="#24324a"/><rect x="46" y="21" width="1.2" height="2.4" fill="#24324a"/><rect x="51" y="21" width="1.2" height="2.4" fill="#24324a"/>
<path d="M52,11 L55,15 L52,19 L49,15 Z" fill="#69bdf5" stroke="#1f5f92" stroke-width="0.9" stroke-linecap="round" stroke-linejoin="round"/>
  </g>
</g>
</svg>