<?xml version="1.0" encoding="UTF-8"?>
<svg xmlns="http://www.w3.org/2000/svg" width="120" height="45" viewBox="0 0 120 45" shape-rendering="crispEdges">
<title>turtle-lose</title>
<desc>Derived from the base svgMap vehicle in D:/Work/LAMDiceBot/js/horse-race-sprites.js turtle run.frame1 near line 275; strict 2x1 lose atlas, 60x45 cells. Not derived from POWER_VEHICLE_VARIANT_OVERRIDES.</desc>
<defs>
  <clipPath id="clip-0"><rect x="0" y="0" width="60" height="45"/></clipPath>
  <clipPath id="clip-1"><rect x="60" y="0" width="60" height="45"/></clipPath>
  <filter id="muted" color-interpolation-filters="sRGB">
    <feColorMatrix type="saturate" values="0.78"/>
  </filter>
</defs>
<!-- strict atlas: 2 columns x 1 row, 60x45 cells, no gutters -->
<g clip-path="url(#clip-0)">
  <g transform="translate(0 0)">
    <g filter="url(#muted)" transform="translate(0 1) translate(0 45) scale(1 0.94) translate(0 -45)">
      <svg x="0" y="0" width="60" height="45" viewBox="0 0 60 45" preserveAspectRatio="xMidYMax meet">
<ellipse cx="30" cy="28" rx="18" ry="12" fill="#228B22"/>
                    <path d="M15,20 Q30,10 45,20" fill="#006400"/>
                    <ellipse cx="50" cy="28" rx="6" ry="5" fill="#8FBC8F"/>
                    <circle cx="54" cy="26" r="2" fill="black"/>
                    <ellipse cx="18" cy="36" rx="4" ry="3" fill="#8FBC8F"/>
                    <ellipse cx="42" cy="36" rx="4" ry="3" fill="#8FBC8F"/>
                    <ellipse cx="20" cy="24" rx="3" ry="2" fill="#8FBC8F"/>
                    <ellipse cx="40" cy="24" rx="3" ry="2" fill="#8FBC8F"/>
                    <circle cx="10" cy="30" r="3" fill="#8FBC8F"/>
      </svg>
    </g>
<rect x="45" y="24" width="3" height="1.4" fill="#24324a"/><rect x="50" y="24" width="3" height="1.4" fill="#24324a"/><rect x="46" y="25" width="1.2" height="2.4" fill="#24324a"/><rect x="51" y="25" width="1.2" height="2.4" fill="#24324a"/>
<circle cx="27" cy="12" r="2" fill="#c5c9cc" stroke="#6c737a" stroke-width="1.1"/><circle cx="30" cy="11" r="2.4" fill="#d6dadd" stroke="#6c737a" stroke-width="1.1"/><circle cx="33" cy="12" r="2" fill="#c5c9cc" stroke="#6c737a" stroke-width="1.1"/>
  </g>
</g>
<g clip-path="url(#clip-1)">
  <g transform="translate(60 0)">
    <g filter="url(#muted)" transform="translate(0 2) translate(0 45) scale(1 0.91) translate(0 -45)">
      <svg x="0" y="0" width="60" height="45" viewBox="0 0 60 45" preserveAspectRatio="xMidYMax meet">
<ellipse cx="30" cy="28" rx="18" ry="12" fill="#228B22"/>
                    <path d="M15,20 Q30,10 45,20" fill="#006400"/>
                    <ellipse cx="52" cy="28" rx="6" ry="5" fill="#8FBC8F"/>
                    <circle cx="56" cy="26" r="2" fill="black"/>
                    <ellipse cx="16" cy="38" rx="4" ry="3" fill="#8FBC8F"/>
                    <ellipse cx="40" cy="38" rx="4" ry="3" fill="#8FBC8F"/>
                    <ellipse cx="22" cy="22" rx="3" ry="2" fill="#8FBC8F"/>
                    <ellipse cx="42" cy="22" rx="3" ry="2" fill="#8FBC8F"/>
                    <circle cx="8" cy="32" r="3" fill="#8FBC8F"/>
      </svg>
    </g>
<rect x="45" y="25" width="3" height="1.4" fill="#24324a"/><rect x="50" y="25" width="3" height="1.4" fill="#24324a"/><rect x="46" y="26" width="1.2" height="2.4" fill="#24324a"/><rect x="51" y="26" width="1.2" height="2.4" fill="#24324a"/>
<circle cx="27" cy="11" r="2" fill="#c5c9cc" stroke="#6c737a" stroke-width="1.1"/><circle cx="30" cy="10" r="2.4" fill="#d6dadd" stroke="#6c737a" stroke-width="1.1"/><circle cx="33" cy="11" r="2" fill="#c5c9cc" stroke="#6c737a" stroke-width="1.1"/>
  </g>
</g>
</svg>